<?xml version="1.0" encoding="utf-8"?>
<svg viewBox="0 0 500 500" xmlns="http://www.w3.org/2000/svg">
  <ellipse style="stroke-width: 3px; stroke: rgb(0, 0, 0); fill: rgb(77, 213, 88);" cx="250" cy="250" rx="245" ry="245"/>
  <text style="fill: rgb(255, 255, 255); font-family: Padauk; font-size: 187px; letter-spacing: -5.6px; white-space: pre;" x="-23.783" y="34.204"><tspan x="74.467" y="408.491" style="font-size: 187px; word-spacing: 0px; letter-spacing: -5.6px;">E</tspan><tspan style="letter-spacing: -20px; font-size: 187px; word-spacing: 0px;">WA</tspan></text>
  <path d="M 132.457 158.641 C 132.457 180.38 138.068 200.175 147.684 217.099 L 130.668 279.212 L 194.728 262.915 C 228.811 281.299 271.788 283.338 310.113 261.211 C 346.758 240.055 369.332 200.954 369.332 158.641 C 369.332 67.468 270.634 10.485 191.676 56.071 C 155.031 77.227 132.457 116.328 132.457 158.641 Z M 155.337 158.641 C 155.337 85.08 234.969 39.105 298.673 75.885 C 328.238 92.955 346.452 124.501 346.452 158.641 C 346.452 232.201 266.82 278.177 203.116 241.397 C 201.303 240.349 199.531 239.249 197.805 238.095 L 163.049 247.872 L 171.933 212.459 C 161.298 196.851 155.337 178.171 155.337 158.641 Z" style="fill: rgb(255, 255, 255);"/>
  <path style="fill: rgb(255, 255, 255);" d="M 213.833 104.864 C 175.233 112.228 201.253 165.288 225.889 185.681 C 244.01 200.681 299.299 232.868 308.596 188.401 C 309.642 183.398 293.44 167.142 278.799 171.156 C 272.074 173 268.21 186.813 262.71 184.524 C 246.87 177.931 234.391 168.759 223.872 150.746 C 221.948 147.454 231.843 142.045 232.219 133.683 C 232.773 121.34 221.395 103.421 213.833 104.864 Z"/>
</svg>